<?xml version="1.0" encoding="utf-8"?>
<svg version="1.1" id="Layer_1"
xmlns="http://www.w3.org/2000/svg"
xmlns:xlink="http://www.w3.org/1999/xlink"
width="550px" height="400px"
xml:space="preserve">
<g id="PathID_21" transform="matrix(2.57187, 0, 0, 2.57187, 259.7, 144.1)" opacity="1">
<path style="fill:#978A9E;fill-opacity:1" d="M1.25 -26.45L2.85 -26.35L3 -26.35L3.05 -26.3L3 -26.2L3 -26.15L3.05 -26.05Q3.5 -25.95 3.55 -26.25L3.55 -26.35L3.7 -26.45L3.95 -26.3L4 -26.05L4.25 -26.05L4.55 -26.35L4.85 -26.35Q5.7 -26.35 5.95 -26.6L7.25 -26.5L8.25 -26.3L8.05 -26.25L7.8 -26.15L7.75 -26.05L7.8 -26Q7.8 -25.7 8.1 -25.6L8.8 -25.6L8.85 -25.6L9.1 -25.5L9.3 -25.5L9.4 -25.5L9.65 -25.6Q9.7 -25.8 9.9 -25.8L10.15 -25.65L10.3 -25.5Q10.55 -25.1 11.3 -24.9L12.65 -24.4L13.1 -24.2L13.55 -24.15L14.1 -24.2L14.3 -24L14.7 -23.8L15.05 -24.05L17.45 -22.6L19.6 -21Q19.75 -20.4 20.9 -20.2L20.9 -20.15L20.8 -20.1L21.15 -19.9L21.45 -19.8Q22 -19.6 22.05 -18.9Q22.1 -18.1 22.6 -17.9L22.5 -17.9L22.4 -17.7L22.4 -17.6L22.6 -17.4L22.8 -17.2L23.1 -16.85Q22.35 -16.8 22.35 -16.55Q22.35 -16.45 23.05 -16.3L23.85 -16.1L23.7 -15.95L23.55 -15.9L23.4 -15.85L23.35 -15.8L23.55 -15.65Q24.5 -15.25 24.5 -14.4L24.6 -14.4L24.85 -14.45L25.05 -14.5L25.25 -14.4L25.4 -14.15L25.4 -14.1L25.25 -14.1L25.05 -14.1L24.95 -14.1L24.95 -14L25.05 -13.95L25.35 -13.85L25.4 -13.85L25.7 -13.7L26.05 -13.55L26.1 -13.55L26.3 -13.15L26.3 -13.1L26.25 -12.95L26.25 -12.9L26.15 -12.85L25.7 -12.95L25.35 -13.1L25.35 -13.25L25.1 -13.55Q24.8 -13.5 24.8 -13.25L24.9 -12.95L25.05 -12.65L24.95 -12.55L24.75 -12.75L24.6 -12.95L23.6 -14.4L23.75 -14.4L24 -14.4L23.75 -14.65L23.4 -14.75Q19.65 -18.95 15.95 -20.95Q10.6 -23.9 3.2 -24.3L2 -24.3L-0.95 -24.15L-3.7 -23.8L-3.6 -24L-3.7 -24.1L-4 -24.15L-4.2 -24L-4.25 -23.9L-4.25 -23.85L-3.9 -23.8L-5.65 -23.3L-7.4 -22.8Q-16.7 -19.6 -21.15 -11.25L-21.4 -10.7L-21.75 -10.15L-22 -10L-22.2 -9.85L-22.2 -9.75L-22.05 -9.55L-22.05 -9.4L-22.3 -8.85L-22.6 -8.25L-22.6 -8.2L-23.1 -8.2L-23.2 -8.2L-23.25 -8.55L-23.25 -8.65L-23.2 -8.9L-23.1 -9.1L-22.9 -9.25L-22.8 -9.5L-22.8 -9.7L-23.05 -9.85L-23.35 -10L-23.45 -10.2L-23.7 -10.35Q-24.05 -10.35 -24.05 -9.9L-24.05 -9.4L-24.35 -9.15L-24.6 -8.95L-24.9 -9L-25.2 -9.1L-25.8 -8.85L-26.2 -8.6L-26.3 -8.6L-26.5 -8.6L-26.5 -8.65L-26.45 -9L-26.25 -9.55L-26.25 -9.75L-26.1 -9.8L-25.8 -9.8L-25.65 -9.9L-25.6 -10.1L-25.55 -10.1L-25.2 -9.9L-24.75 -9.8L-24.4 -10L-24.45 -10.15L-24.95 -10.4Q-25.4 -10.55 -25.4 -10.65L-25.5 -10.7L-25.5 -10.75L-25.25 -11L-25.2 -11.1L-25 -11.1L-24.65 -11.1L-24.45 -11.1L-24.45 -11.15L-24.65 -11.45L-24.7 -11.55L-24.95 -11.85L-24.95 -11.95L-24.75 -12L-24.55 -12L-24.4 -12Q-24.4 -12.25 -24.9 -12.25L-25.7 -12.2L-25.7 -12.25L-25.8 -12.3L-25.8 -12.35L-25.4 -12.75Q-24.95 -12.85 -24.7 -13.05Q-24.35 -13.2 -24.35 -13.4L-24.6 -13.45L-25.2 -13.4L-24.9 -13.65L-24.75 -13.75L-23.25 -14Q-22.3 -14.15 -22.3 -14.6L-22.3 -14.65L-22.35 -14.9L-23.65 -15.1L-23.15 -15.5Q-22.8 -15.65 -22.8 -15.9L-22.75 -15.9L-22.5 -15.8Q-22.35 -15.65 -22.25 -15.65L-22.05 -15.9L-22.05 -16L-21.85 -16.1L-21.6 -16.1L-21.6 -16.15L-21.45 -16.5L-21.15 -16.8Q-20.7 -17.1 -20.7 -17.35L-20.75 -17.5L-20.4 -17.9L-20.05 -18.3L-20 -18.25L-19.85 -18.1L-19.9 -17.8L-20.3 -17.4L-20.6 -17.05L-20.65 -16.85L-20.65 -16.8L-20.2 -16.5L-19.85 -16.75L-19.55 -17.05L-19.4 -16.8L-19.2 -16.55Q-18.8 -16.6 -18.55 -16.85L-18.3 -17.4L-18.3 -17.45L-18.5 -17.9L-18.6 -18L-18.9 -17.75L-19.15 -17.6L-19.5 -17.7L-19.5 -17.8L-19.4 -18.1L-19.4 -18.15L-19.45 -18.4L-19.45 -18.45L-19.25 -18.6L-18.95 -18.75L-18.7 -19.15L-18.5 -19.35L-17.45 -19.75L-16.2 -19.9L-15.55 -19.9L-14.85 -19.95L-14.35 -20.2L-14.05 -20.7L-14.05 -20.8L-14.4 -21.1L-14.45 -21.1L-15.15 -20.85Q-15.65 -20.55 -15.9 -20.55L-16.4 -20.95L-15.6 -21Q-15.2 -21.05 -15.05 -21.25L-14.7 -21.7L-14.3 -22.2L-12.9 -22.6L-12.45 -22.25L-11.65 -22.05L-11.4 -22.2Q-11.2 -22.25 -11.2 -22.6L-11.2 -22.8L-10.95 -22.85L-10.65 -22.85L-10.45 -23.15L-10.5 -23.55L-10.15 -24.05Q-9.8 -24.2 -9.7 -24.4L-9.05 -24.2L-8.25 -24.1L-7.65 -24.3L-7.15 -24.7L-5.2 -25.05Q-3.8 -25.1 -3.4 -25.4L-3.4 -25.6L-2.9 -25.9L-2.25 -25.95L-1.65 -26.15L-1.15 -26.25L-1 -26.25L-0.6 -26.15L-0.25 -26.05L-0.05 -26.05L0.2 -26.25L0.45 -26.35L1.25 -26.45M0.55 -25.6L0 -25.7L-0.05 -25.7L-0.3 -25.7L-0.6 -25.6L-1.25 -25.85L-1.95 -25.9L-2.2 -25.9L-2.3 -25.7Q-2.25 -25.5 -1.7 -25.35L-0.75 -25.35L-0.7 -25.35L-0.55 -25.4L-0.1 -25.1L0.35 -25.05L0.8 -25.1L0.8 -25.3L0.55 -25.6M1.95 -26.25L1.7 -26.25L1.65 -26.2L1.45 -26.15L1.4 -26.05L1.45 -25.95L1.8 -25.85L2.15 -25.9L2.25 -25.9L2.25 -26.05L2.15 -26.05L1.95 -26.25M14.5 -23.7L14.3 -23.7L14.25 -23.55L14.25 -23.5L14.5 -23.45L14.55 -23.45L14.55 -23.55L14.5 -23.7M22.45 -14.05L22.4 -14.05L22.4 -13.85L22.45 -13.85L22.6 -13.85L22.7 -13.8L22.75 -13.85L22.75 -13.95L22.7 -14L22.45 -14.05M24.3 -14L24.45 -14L24.2 -14.15L24.2 -14.1L24.3 -14M23.15 -13.05L23.15 -13.15L23.1 -13.2L23.05 -13.25L22.95 -13.35L22.95 -13.25L23.15 -13.05M25.2 -9.75L25.05 -9.7L24.9 -9.55L24.9 -9.45L24.85 -9.2L24.35 -9.9L24.15 -10.65Q24.45 -10.65 24.55 -10.35Q24.65 -10 24.85 -9.9L25.05 -9.9L25.2 -10L25.35 -9.9L25.2 -9.75M25.45 -9.4L25.7 -9.2L25.7 -9.1L25.65 -8.9L25.65 -8.85L25.7 -8.7L25.95 -8.6L25.25 -8.85L25.05 -8.7L25.05 -8.8L24.9 -8.85L24.85 -8.95L24.85 -9.1L25.2 -9.1L25.45 -9.1L25.45 -9.15L25.4 -9.3L25.45 -9.4M27.3 -7.8L27.55 -7.6L27.55 -7.45L27.5 -7.45L27.2 -7.5L27.2 -7.7L27.25 -7.8L27.3 -7.8M25.95 -8.6L25.95 -8.55L25.8 -8.5L25.7 -8.6L25.7 -8.7M25.55 -8.4L25.4 -8.25L25.35 -8.25L25.4 -8.4L25.55 -8.4M28.7 -8.4L28.75 -8.55Q29.15 -8.5 29.15 -8L29.3 -7.45L29.15 -7.4Q29 -7.4 29 -7.3L29.3 -7.15L29.5 -7.05L29.45 -7L29.4 -6.85L29.2 -6.9L29 -6.8L28.75 -6.8L28.6 -6.8L28.75 -6.9L28.85 -7L28.75 -7.4L29.05 -7.65L28.75 -8.1L28.7 -8.4M28.55 -9.15L28.6 -9.2L28.75 -9.15L28.75 -9.1L28.55 -8.95L28.55 -9.15M29.4 -6.4L29.15 -6.55L29.5 -6.6L29.65 -6.25L29.65 -6.2L29.4 -6.4M24.8 -11.1L24.45 -11.05L24.3 -11.1L24.55 -11.3L24.8 -11.15L24.8 -11.1M23.9 -11.65L23.9 -11.35L23.85 -11.15L23.75 -11.15L23.7 -11.3L23.65 -11.3L23.45 -11.65L23.45 -11.7Q23.45 -12 23.75 -12L23.85 -11.7L23.9 -11.65M29.65 -5.85L29.8 -5.65L29.7 -5.55L29.6 -5.65L29.65 -5.85M29.8 -4.85L29.65 -4.9L29.8 -4.95L29.9 -4.9L29.9 -4.85L29.8 -4.85M28.7 -4.25Q28.55 -4.25 28.5 -4.35L28.45 -4.45L28.5 -4.55L28.75 -4.35L28.75 -4.25L28.7 -4.25M28.3 -3.2L28.5 -3.1L28.3 -3.1L28.3 -3.2M30 -3.65L29.9 -4.05L30 -4.25L30 -4.35L30.05 -4.35L30.35 -3.4L30.4 -3.1L30.4 -2.85L30.25 -2.45L30.05 -2.6L29.95 -2.85L30 -2.9L30 -2.95L30.05 -3.2L30 -3.65M29.7 -1.85L29.7 -1.8L29.65 -1.7L29.4 -1.8L29.4 -1.85L29.5 -2L29.7 -1.85M30.7 0.55L30.6 0.75L30.55 0.8L30.6 0.85L30.7 1.05L30.7 1.15L30.6 1.4L30.55 1.4L30.65 1.6L30.65 1.75L30.5 1.9L30.5 1.75L30.25 2.25L30.35 2.35L30.6 2.35L30.7 2.4L30.7 2.45L30.6 2.85L30.5 2.75L30.35 2.7L30.25 2.75L30.05 2.85L30.05 2.75L29.95 2.6L29.95 2.45L29.8 2.35L29.6 2.4L29.5 2.55L29.45 2.55L29.4 2.4L29.4 2.3L29.5 2.25L29.8 1.95L29.8 1.9L29.7 1.6Q29.7 1.5 29.95 1.5L30.1 1.4L29.95 1.2L29.6 1.15L29.65 1L29.5 0.6L29.45 0.3L29.45 0.15L29.5 0.1L30.25 0.15L30.65 0.45L30.7 0.55M30.5 0.7L30.35 0.55L30.3 0.55L29.95 0.6Q29.8 0.6 29.8 0.75L29.8 0.8L30 0.8L30.5 0.75L30.5 0.7M30.5 1.75L30.4 1.75L30.3 1.75L30.3 1.8L30.4 1.9L30.5 1.9M30.4 3.55L30.35 3.55L30.25 3.55L30.25 3.45Q30.3 3.35 30.5 3.35L30.4 3.5L30.4 3.55M28.5 0.3L28.45 0.2L28.45 0.1L28.7 0.25L28.7 0.3L28.55 0.3L28.75 0.75L28.5 0.3M28.75 0.75L28.7 1.05L28.6 1.45L28.6 1.6L28.75 1.75L28.55 1.8L28.5 1.9L28.5 2L28.45 2.25L28.4 2.25L28.3 1.15L28.5 0.45L28.5 0.4L28.55 0.3M28.3 2.7L28.3 2.65L28.4 2.55L28.55 2.7L28.55 2.75L28.4 2.95L28.3 2.7M29.3 3L29.2 2.9L29.35 2.7L29.4 2.75L29.45 2.85L29.45 2.9L29.4 3L29.3 3M27.55 0.1L27.65 0.25L27.65 0.3L27.25 0.45L27.1 0.45L27.2 0.3L27.1 0.15L27.25 0.1L27.55 0.1M29.45 3.5L29.45 3.55L29.5 3.9L29.5 4.35L29.5 4.45L29.1 5.05L29 4.7L29 4.65L29.15 3.9L29.3 3.5L29.3 3.25L29.4 3.3L29.45 3.5M30.25 3.9L30.35 3.9L30.35 4.45Q30.35 4.95 30.05 5.1L29.95 5.15L29.9 5.15L30.2 3.9L30.25 3.9M28.15 4.25L28.2 4.35L28.15 4.45L28.1 4.4L28.15 4.25M28.25 4.85L28.4 4.95L28.3 5.15L28.25 5.15L28.15 5.05L28.15 5L28.25 4.85M29.4 6.05L29.4 6.1L29.15 6.05L29 6L29.15 5.9Q29.4 5.9 29.4 6.05M30 5.65L29.95 5.65L29.7 5.55L29.7 5.4L29.8 5.35Q30 5.35 30 5.45L30 5.65M29.6 7.7L29.6 7.8L29.4 8.15L29.3 8.75L28.9 9.3L28.85 9.1L28.85 9.05L29 8.6L29.15 8.15L29.15 7.7Q29.15 7.5 29.45 7.5L29.5 7.5L29.5 7.55L29.6 7.7M29.5 6.6L29.5 7L29.3 7L29 7.1L28.9 7.1L28.9 7L28.8 6.9L28.75 6.7L28.75 6.5L29.05 6.5Q29.35 6.5 29.6 6.3L29.6 6.4L29.5 6.6M28.75 7.7L28.75 7.85L28.4 8.3L28.3 8.3L28.3 8.05L28.5 7.6L28.55 7.45L28.75 7.7M26.05 6.85L25.95 7.25L25.85 7.25L25.75 7.15L25.75 7.1L25.8 6.9L25.95 6.6L26.05 6.85M27.25 8.2L27.1 8.5L27.3 8.6L27.5 8.7L27.3 9.5L26.95 10.25L26.25 11.05L25.65 11.75L25.65 11.8L25.5 12.05L25.5 12.15Q25.55 12.6 26.15 12.6L26.3 12.6L26.35 12.4L26.35 12.1L26.3 11.95L26.3 11.8Q26.3 11.5 26.6 11.45L26.7 11.45L27.3 11.25L27.55 10.75L27.65 10.75L27.8 10.75L27.9 10.8L28.2 10.55L28.45 10.2L28.55 9.85Q28.6 9.65 28.8 9.6L28.85 9.85L28.85 9.95L28.7 10.6L28.3 11.45L28.25 11.45L27.95 11.4L27.85 11.25L27.7 11.45L27.65 11.55L27.5 11.8L27.35 11.85L27.5 12.05L27.65 12.25L27.65 12.35L27.65 12.45L27.6 12.65L27.35 12.95L27.1 13.25L26.85 13.45L26.4 13.35L26.35 13.3L26.35 13L26.3 12.85L26.25 12.85Q25.75 12.85 25.4 13.2L24.8 13.8L24.3 14.15L23.9 14.6L23.55 15.2L23.25 15.6L23.05 15.9L23.05 15.95L23.65 16.35L24.05 16.5L24.3 16.7L23.75 17.1L23.45 17.25L23.45 17.3L23.75 17.55L23.85 17.55L23.85 17.6L23.75 17.7L23.85 17.9L23.9 17.95L23.9 18.05L23.95 18.05L23.9 18.15L23.65 18.2L23.15 18.2L23.05 18.2L23 18.25L23 18.4L23.05 18.4L23.1 18.55L22.2 18.2L21.5 17.8L20.95 18.15L20.3 18.4L20.7 17.85L21.4 17.2Q24.85 13.8 26.65 9.35L26.95 8.6L27.05 8.2L27.3 7.85L27.35 8.05L27.35 8.1L27.25 8.2M27.85 9.6Q27.85 9.5 28 9.5L28.2 9.5L28.4 9.6L28.15 9.65L27.85 9.6M23.25 20L22.1 20.15L21.25 20.35Q21 20.5 21 20.95L20.7 21.55L20.55 21.4L20.5 21.2Q20 21.25 19.8 21.5L19.5 21.85Q19.3 21.85 18.85 21.45Q18.5 21.1 18.1 21.1L18.05 21.1Q17.35 21.1 17.2 22L17.15 22.45L17.15 22.6L17.3 23.2Q17.5 23.4 17.75 23.4L18.35 22.95Q18.55 22.45 18.85 22.45L18.9 22.45L19 22.6L18.9 22.75L18.7 22.9L18.85 23.2L19 23.5L18.9 23.65L18.8 23.65L18.8 23.55L18.8 23.5L18.65 23.35Q18.2 23.4 17.95 23.65L17.95 23.7L18.05 23.85L18.1 24L17.25 24.3L17.3 24.1L17.3 23.95L17.25 23.8L16.65 23.85L16.1 24L15.65 23.85L15.7 22.95Q15.65 22.3 15.4 22L15.35 21.9L14.6 22.15L13.95 22.45L14.25 23.25L14.5 24L14.5 24.15L14.4 24.15Q13.7 24.15 13.25 23.8L12.6 23.1Q12 23.3 11.8 24.15Q11.7 25.1 11.15 25.3L11.25 25.4L11.25 25.5L10.8 25.65L10.25 25.75L9.9 25.75L9.6 25.9L9.55 25.9L9 25.65L8.5 25.2L7.6 25.4L7.65 25.65L7.75 25.75L7.65 25.9L7.55 25.95Q7.35 25.9 7.25 25.5L6.85 25.05L6.8 25.1L6.5 25.5L6.5 26.15L5.35 25.9L4.4 25.5L4.3 25.5L4.25 25.75L4.25 25.8L4.45 26.15L4.75 26.4L3.65 26.65L2.95 26.6L3.1 26.4L3.35 26.25L3.5 26.15L3.6 25.75L3.6 25.65L3.2 24.85Q2.1 24.85 1.5 25.4L0.25 26.25L0.25 26.15L0.3 26L0.35 25.8L0.35 25.75L0.25 25.75L-0.45 25.75L-1.2 25.95L-1.7 25.95L-3.65 25.75L-5.15 25.45L-5.15 25.35Q-5.15 25.1 -5.8 25L-6.65 24.75L-6.75 24.6L-6.95 24.6L-7.4 24.7L-7.9 24.75L-7.7 24.55L-7.7 24.5L-8.65 24.2L-9.85 24.1L-10.75 24.3L-11.25 23.8L-11.25 23.6L-12.25 23.4L-13.2 23.25L-13.1 23.05L-13 22.9L-11.6 23.2Q-10.75 23.3 -10.45 23.55L-9.75 23.05L-9.75 23L-9.7 22.95L-9.3 22.7Q-9.3 22.45 -10.9 22.35L-13.35 22.3L-14.35 22.3L-15.15 22.2L-15.35 21.9L-15.55 21.75L-15.55 21.7L-15.5 21.7Q-15.3 21.7 -15.25 21.8L-15.2 22L-14.7 22.05L-14.3 22L-15.15 21.45L-16.25 21.1L-16.25 21.05L-16.1 20.9L-15.95 20.75L-16.15 20.5L-16.35 20.3L-16.35 20.25L-16.1 20.05L-15.6 20Q-15.15 20 -15 20.2L-14.75 19.95L-14.55 19.75L-15.8 19.6L-16.55 19.6L-17.1 19.75L-17.1 19.6Q-17.1 19.3 -17.7 19.15L-18.85 18.85L-18.95 18.8L-19 18.7L-19.3 18.75Q-19.85 18.75 -20.2 18.4L-19.85 18.35L-19.5 18.2L-19.55 18.15L-20 17.7L-20.3 17.4L-20.3 17.3L-20.2 17.15L-20.15 17.15L-19.8 17L-19.6 17L-19.55 17.1L-19.8 17.3L-20 17.6L-20 17.7L-18.85 18.1L-19.1 18.25L-19.25 18.4L-19.15 18.4L-18.4 18.45L-18 18.1L-18 18.05L-18.2 17.8L-18.1 17.55L-18.1 17.4L-18.1 17.2Q-18.25 16.7 -18.85 16.3L-18.8 16.3L-18.95 15.7L-19.2 15.15L-19.4 14.7L-18.9 15.1L-18.5 15.6Q-15.8 18.95 -11.8 21.2Q-8.8 22.75 -5.95 23.55Q-3.15 24.4 0.15 24.35Q0.6 24.5 1.05 24.5L1.45 24.5L2.25 24.6L3.2 24.6Q8.65 24.55 13.25 22.5Q16.45 21.25 18.85 19.4L19.2 19.1Q19.4 18.95 19.6 18.95L20.5 19.15L21.3 19.4L22.4 19.65L23.35 19.95L23.25 20M-7.45 22.9Q-8.6 22.75 -9.4 21.85L-9.3 21.8L-9.45 21.7L-9.7 21.7L-9.75 21.7Q-11.7 21.05 -13.35 19.85Q-15.5 18.4 -17.15 16.5Q-18.95 14.6 -20.05 12.6L-20.4 11.95L-20.7 11.4L-20.7 11.15L-20.9 10.85L-21 10.6L-21 10.55L-20.9 10.35L-20.75 10.15L-20.95 10.05L-21.15 10.05L-21.15 10L-21.1 9.95L-21.25 9.8L-21.35 9.7L-21.25 9.65L-21.3 9.6L-21.15 9.6L-21.05 9.65L-20.9 9.7L-21.15 8.3L-21.45 6.7L-20.15 10Q-19.45 11.8 -18.55 13.05Q-16.8 15.75 -13.85 18.4L-9.3 21.25Q-6.5 22.65 -3.35 23.3L2.25 23.8L5.2 23.65Q8.85 23.3 12 22.05Q17.3 19.95 20.8 16.1Q23.7 12.85 25.5 8.15Q25.55 8.05 25.7 8.05L26 8L26.15 7.8L26.4 7.2L26.45 6.7L26.45 6.55L26.3 6.5L26 6.5L26.35 4.15L26.7 1.9L26.85 1.9L26.95 1.95L27.2 2L27.3 2L27.3 1.9L27.2 1.75L27.05 1.6L27.2 1.5L27.3 1.4L27.2 1.2L27.1 1.15L27.2 0.8Q27.25 0.6 27.55 0.6L27.6 0.75L27.7 1.15L27.7 1.5L27.65 2.05L27.65 2.45L27.5 2.85L27.25 2.9L27 2.95L27 3L27.1 3.15L27.2 3.2L27 3.3Q26.85 3.35 26.75 3.5L27.05 3.6L27.3 3.65L27.4 4.05L27.35 4.1L27.35 4.15L27.3 4.45L27.2 4.7L26.85 5.05L26.6 5.45L26.65 5.65L26.75 5.85L26.9 6.05L26.85 6.7L26.35 8.4L25.65 10Q23.85 14.1 20.9 17Q17.65 20.25 12.9 22.3Q7.75 24.55 1.85 24.5L1.45 24.5Q0.8 24.55 0.15 24.35Q-3.7 24.25 -7.45 22.9M19.2 22.2L19.15 22.3L18.9 22.4L18.85 22.4L18.85 22.2L19.05 22.1L19.15 22.15L19.2 22.2M13.05 25.1Q13.1 25 13.5 24.8L14.25 24.85Q14.2 25.15 13.05 25.15L13.05 25.1M10.3 25.2Q9.95 25.3 9.9 25.45L9.9 25.6L9.95 25.6L10.25 25.65L10.6 25.45L10.65 25.35Q10.65 25.2 10.45 25.2L10.3 25.2M2.55 26.55L1.4 26.6L2.15 25.6L2.45 26L2.7 26.55L2.55 26.55M-0.9 -24.8L-1.05 -24.65L-1.55 -24.7L-1.8 -24.6L-1.8 -24.4L-1.6 -24.2L-1.2 -24.3L-1 -24.4L-0.95 -24.4L-0.95 -24.35L-0.9 -24.3L-0.35 -24.3L-0.15 -24.7L-0.15 -24.75Q-0.25 -25 -0.6 -25L-0.9 -24.8M-24.9 -12.5L-24.75 -12.35L-24.4 -12.45L-24.3 -12.65L-24.3 -12.8L-24.7 -12.9L-24.9 -12.75L-24.95 -12.6L-24.9 -12.5M-23.55 -11.65L-23.5 -11.7L-23.5 -11.75L-23.65 -11.9L-23.7 -11.95L-23.75 -11.9Q-24.3 -11.9 -24.35 -11.55L-24.35 -11.45L-24.15 -11.35L-24.1 -11.35L-23.75 -11.45L-23.55 -11.65M-24.95 -10.95L-24.95 -10.75L-24.75 -10.65L-24.45 -10.55L-24.35 -10.55L-24.25 -10.7L-24.3 -10.75L-24.45 -10.95L-24.9 -10.95L-24.95 -10.95M-24.65 -9.45L-25.3 -9.55L-25.95 -9.4L-25.3 -9.25L-24.7 -9.3L-24.65 -9.4L-24.65 -9.45M-24.55 -8.8L-24.3 -8.7L-24.15 -8.7L-24.3 -8.5L-24.55 -8.25L-24.55 -8.1L-24.35 -7.8L-24.25 -7.5L-24.15 -7.45L-23.7 -7.4L-23.4 -7.3L-23.25 -7.3L-23.1 -7.3L-22.95 -7.4L-22.9 -7.35L-22.95 -6.8L-23.15 -6.4L-23.4 -6.55L-23.65 -6.75Q-24.1 -6.7 -24.1 -6.2Q-24.1 -5.65 -24.6 -5.65L-24.7 -5.65L-24.7 -5.75L-24.75 -5.75L-24.95 -6.05L-24.85 -6.4L-24.65 -6.75L-24.75 -7L-24.75 -7.05L-24.9 -7.05L-24.85 -7.1Q-24.7 -7.3 -24.7 -7.45L-24.75 -7.65L-24.95 -7.7L-25.4 -7.65L-25.55 -7.65L-25.55 -7.7L-25.5 -7.8L-25.4 -8L-25.4 -8.05Q-24.75 -8.2 -24.6 -8.7L-24.55 -8.8M-26.8 -6.7L-26.5 -6.55L-26.5 -6.4L-26.5 -6.25Q-26.85 -6.4 -26.85 -6.7L-26.8 -6.7M-25.4 -5.65L-25.3 -5.35L-26 -5.2L-26.25 -5.5L-26.5 -5.8L-26.15 -5.85L-25.7 -5.9L-25.4 -5.65M-27 -5.9L-27.15 -6.15L-27 -6.15L-26.8 -6.1L-26.85 -6.05Q-26.85 -5.9 -27 -5.9M-27.4 -4.95L-27.15 -4.9L-27.95 -4.45L-28 -4.45L-28.2 -4.55L-28.3 -4.6L-28.1 -4.7L-27.95 -4.9L-28.1 -5.3L-28.2 -5.65L-27.9 -5.75L-27.35 -5.55L-26.85 -5.35Q-26.85 -5.2 -27.15 -5.2L-27.6 -5.05Q-27.6 -4.95 -27.4 -4.95M-27.1 -3.65L-26.75 -3.75L-26.5 -3.8L-26.8 -4L-27.2 -4.05L-27.4 -4.05L-27.6 -3.85L-27.8 -3.8L-28.2 -3.75L-28.5 -3.65L-28.25 -3.55L-28 -3.55L-28.25 -3.4L-28.65 -3.35L-29 -3.95L-28.95 -4L-28.8 -3.85L-28.6 -3.8L-28.25 -4.1L-27.95 -4.3L-26.3 -4.1L-26.2 -4L-26.15 -3.65L-26.15 -2.95L-26.4 -3.1L-26.5 -3.2L-26.5 -3.25L-26.45 -3.35L-26.75 -3.5L-27.1 -3.65M-25.4 -3.5L-25.3 -3.55L-25.2 -3.5L-25.35 -3.4L-25.35 -3.45L-25.4 -3.45L-25.4 -3.5M-28.65 -4.9L-28.6 -4.6L-28.55 -4.45L-28.6 -4.35L-29.15 -4.15L-29.2 -4.15L-29.3 -4.35L-29.3 -4.55L-29.15 -4.75L-28.7 -4.9L-28.65 -4.9M-28.05 -2.95Q-27.5 -2.95 -27.45 -2.75L-27.45 -2.65L-27.5 -2.6L-27.7 -2.6L-28.05 -2.65L-28.6 -2.75Q-28.6 -2.95 -28.05 -2.95M-28.6 -2.1L-28.3 -2.3L-28.3 -2.35L-27.75 -2.5L-27.3 -2.55L-27.3 -2.5L-27.2 -2.35L-27.2 -2.3L-27.6 -2.15L-27.95 -2.1L-28.2 -1.95Q-28.3 -1.8 -28.55 -1.8L-28.6 -1.8L-28.6 -2.1M-29.5 -2.75L-29.5 -2.85L-29.2 -2.75L-29.2 -2.65L-29.25 -2.65L-29.5 -2.75M-28.6 -1.2L-28.65 -1L-28.95 -0.9L-29 -0.95L-29 -1.05L-28.9 -1.3L-28.6 -1.2M-25.65 -2.15L-25.6 -2.1L-25.8 -1.8L-25.85 -1.85L-25.9 -1.95L-25.8 -2.15L-25.65 -2.15M-26.9 -1.6L-27 -1.65L-27.3 -1.7L-27.2 -1.8L-27 -1.65L-26.9 -1.65L-26.9 -1.6M-27.15 -0.9L-27.2 -0.9L-27.2 -0.95L-27.05 -1.05L-26.9 -1.05L-26.9 -1Q-26.9 -0.9 -27.15 -0.9M-26.3 -0.65L-26.3 -0.5L-26.75 -0.45L-26.5 -0.8L-26.3 -0.65M-25.85 -1.2L-25.65 -1.3L-25.3 -1.4L-25.05 -1.55L-25.05 -1.2L-25.85 -1.05L-25.85 -1.2M-23.25 -5.8Q-23.35 -5.3 -23.65 -5.05L-23.85 -5L-23.85 -5.05L-23.95 -5.2L-23.8 -5.45L-23.65 -5.5L-23.65 -5.55L-23.7 -5.65L-23.7 -5.75L-23.35 -6.15L-23.35 -6.05L-23.25 -5.85L-23.25 -5.8M-23.75 -4.7L-23.7 -4.65L-23.8 -4.35L-23.7 -4.15L-24 -4.35L-24.25 -4.6L-24.3 -4.55L-24.6 -4.55L-24.85 -4.7L-24.9 -4.85L-24.55 -4.95L-24.35 -4.65L-24.15 -4.7L-24 -4.85L-23.85 -4.85L-23.85 -4.75L-23.75 -4.75L-23.75 -4.7M-25 -4L-24.85 -4L-24.85 -3.95L-25 -3.95L-25 -4M-24.45 -3.85L-24.4 -3.85L-24.25 -3.85L-24.15 -3.8L-24.15 -3.75L-24.35 -3.75L-24.45 -3.85M-23.95 -3.75L-23.75 -3.7L-23.75 -3.45L-23.85 -3.55L-23.95 -3.75M-24.55 -2.85L-24.65 -2.85L-24.95 -2.95L-24.65 -3.1Q-24.4 -3.1 -24.4 -2.95L-24.55 -2.85M-24.6 -2.45L-24.25 -2.3L-24.05 -2.15L-24.35 -1.95L-24.35 -1.85L-25.05 -2.15L-25.05 -2.2L-24.65 -2.5L-24.6 -2.45M-24.3 -0.2L-24.4 -0.3L-24.4 -0.4L-24.35 -0.4L-24.35 -0.45L-24.25 -0.35L-24.3 -0.2M-15.15 17.8L-15 17.95L-14.75 18.15L-14.9 17.9L-15.15 17.8M-14 18.45Q-14.25 18.45 -14.35 18.65L-14.1 18.65L-14.25 18.7L-14.35 18.75L-14.05 18.8L-13.95 18.7L-13.95 18.65L-14 18.5L-14 18.45M-17.7 15L-17.95 14.85L-17.75 15.1L-17.5 15.35L-17.5 15.3L-17.7 15M-20.15 16.05L-20.1 16.05Q-19.85 16.05 -19.8 16.2L-20.05 16.25L-20.15 16.1L-20.15 16.05M-20.05 16.55L-19.9 16.55L-19.55 16.6L-19.45 16.7L-19.45 16.9L-19.5 16.95L-19.6 16.9L-20.05 16.6L-20.05 16.55M-19.2 17.3L-18.9 17.2L-18.85 17.2L-18.7 17.3L-18.7 17.4L-18.8 17.55L-18.9 17.6L-18.95 17.6L-19.1 17.7L-19.25 17.75L-19.3 17.7L-19.3 17.6L-19.2 17.3M-16.45 16.5L-16.45 16.4L-16.55 16.25L-16.8 16.2L-16.5 16.5L-16.45 16.5M-16.95 18.5L-16.95 18.65L-16.65 19L-16.2 19.3L-15.8 19.3L-15.3 19.3L-15.8 18.85L-16.4 18.5L-16.7 18.5L-16.95 18.5M-12.5 21.35L-13 21.25L-13.4 21.25L-13.65 21.45L-13.55 21.5L-12.9 21.65Q-12.5 21.65 -12.5 21.45L-12.5 21.35M-11.05 20.9L-10.75 21.05L-10.6 20.95L-10.5 20.95L-10.95 20.75Q-11.2 20.55 -11.4 20.5L-11.35 20.75L-11.3 20.75L-11.05 20.9M-14.15 19.95L-14.35 19.95L-14.45 20L-14.45 20.15L-14.4 20.25L-14 20.25L-13.95 20.15L-14 20L-14.15 19.95M-14.05 20.8L-13.8 20.85L-13.55 20.85L-13.45 20.85L-13.45 20.8L-13.5 20.55L-13.65 20.45L-13.7 20.45Q-14.1 20.45 -14.05 20.75L-14.05 20.8M-14.15 21.65L-13.8 21.45L-13.85 21.4Q-13.95 21.25 -14.15 21.25L-14.25 21.35L-14.35 21.45L-14.35 21.5L-14.3 21.55L-14.3 21.65L-14.15 21.65M-9.05 23.4L-9.3 23.4L-9.55 23.65L-9.55 23.8L-9.5 23.85L-9.05 23.85L-8.65 23.6L-8.65 23.55Q-8.65 23.4 -8.9 23.4L-9.05 23.4M-24.6 1.6L-24.6 1.5L-24.4 1.4L-24.35 1.4L-24.35 1.5L-24.35 1.6L-24.4 1.6L-24.6 1.6M-25.2 3.75L-25.3 3.85L-25.4 3.85L-25.5 3.8L-25.55 3.65L-25.55 3.6L-25.5 3.6L-25.5 3.55L-25.4 3.55Q-25.2 3.55 -25.2 3.65L-25.2 3.75M-27.45 3L-27.8 2.85L-27.8 2.7L-27.7 2.65L-27.45 2.7L-27.35 2.85L-27.35 2.95L-27.4 3L-27.45 3M-26.75 2.6L-26.75 2.45L-26.6 2.4L-26.4 2.45L-26.45 2.55L-26.6 2.6L-26.75 2.6M-29.5 0.45L-29.75 0.45L-29.75 0.3L-29.5 0.3L-29.5 0.45M-29.3 2.9L-28.9 3L-28.7 2.95L-28.6 3L-28.6 3.15L-28.8 3.2L-29.1 3.25L-29.1 3.55L-29.15 3.65L-29.35 3.2L-29.6 2.75L-29.3 2.9M-30.1 2.55L-30.5 2.4L-30.25 2.3L-29.9 2.4L-29.75 2.65L-30.1 2.55M-27.95 3.6L-27.75 3.5L-27.5 3.6L-27.9 3.65L-27.95 3.6M-28.8 4.15L-28.8 4.25L-29.15 4.1L-29.15 3.85L-28.95 3.9L-28.8 4.15M-26.5 3.35L-27 3.6L-27.05 3.55L-27.05 3.5L-26.9 3.25L-26.55 3.2L-26.15 3.2L-26.5 3.35M-26.85 4.15L-26.85 4.2L-27.1 4.35L-27.4 4.2L-27.15 4.1L-26.85 4.15M-23.05 11.8L-22.8 11.85L-22.8 11.95L-22.85 11.95L-22.9 12L-23.15 11.95L-23.05 11.8M-22.8 11.4L-22.6 11.45L-22.85 11.45L-22.8 11.4M-22.5 10.45L-22.2 10.55L-22 10.55L-21.6 10.85L-21.4 11.2L-21.45 11.25L-21.55 11.25Q-21.6 11.1 -22.05 10.85L-22.6 10.45L-22.5 10.45M-21.95 11.55L-21.95 11.65L-22 11.65L-22.25 11.55L-22.25 11.5L-22.2 11.5L-22 11.5L-21.95 11.55M-21.6 11.95L-21.65 11.8L-21.3 11.5L-21.05 12Q-20.9 12.25 -20.9 12.4Q-20.95 12.3 -21.15 12.25L-21.55 12.15L-21.6 11.95M-30.65 1.15L-30.65 1.1L-30.4 1L-30.25 1L-30.5 1.2L-30.65 1.15M-20.8 12.85L-20.9 12.85L-20.9 12.75L-20.75 12.6L-20.65 12.65L-20.65 12.75L-20.8 12.85M-22.45 13.8L-22.45 13.85L-22.8 14.25L-22.95 14.45L-22.95 14.5L-22.9 14.7L-22.8 14.7L-22.65 14.7L-22.5 14.6L-22.35 14.7Q-22.05 14.8 -22.05 15L-22.6 15.2L-22.8 15.2L-22.9 15.1L-22.75 15.1L-22.6 15L-22.6 14.85L-22.8 14.8L-23.05 14.85L-23.2 15L-23.4 14.85Q-24.15 14.45 -24.15 13.85L-24.15 13.65L-23.65 13.65L-23.55 13.75L-23.5 13.85L-23.75 14.25L-23.75 14.3Q-23.75 14.45 -23.35 14.45L-23.25 14.45L-23.2 14.3L-23.35 14L-22.55 13.75L-22.45 13.8M-21.75 14.25L-21.75 14.3L-22.25 14.45L-22.05 14.3L-21.75 14.25M-21.55 15.35L-21.6 15.45L-21.85 15.45L-21.85 15.35Q-21.85 15.15 -21.55 15.15L-21.55 15.35M-20.95 15.35L-20.95 15.3L-20.9 15.2L-20.75 15.2L-20.75 15.35L-20.95 15.35M-24 13.25L-24.15 13.45L-24.3 13.6L-24.6 13.45L-24.9 13.3Q-24.9 13.2 -24.7 13.2L-24.4 13.25L-24.35 13.25L-24.15 13.2L-24.05 13.05L-23.5 13.2L-23.35 13.45L-23.35 13.5L-23.45 13.6L-23.7 13.45L-23.95 13.3L-24 13.25M-21.25 15.75L-21.15 15.8L-21.55 16L-22.05 16.2L-22.05 16.1L-22.15 16.05L-22.15 16L-22.45 15.95L-22.75 15.9L-22.5 15.75L-22.25 15.7L-21.95 15.8L-21.55 15.9L-21.35 15.8L-21.25 15.75M-25.85 13.85L-25.9 13.85L-25.95 13.8L-25.9 13.65L-25.65 13.6L-25.5 13.8L-25.85 13.85M-9.05 24.75L-9.05 24.7L-8.05 24.8L-8.55 24.9L-9.05 24.75M23.55 -12.15Q23.55 -12 23.35 -12L22.75 -12.8L22.3 -13.4Q18.35 -18.9 12 -21.4Q7.35 -23.2 1.95 -23.2L1.2 -23.2L-4.5 -22.55Q-6.75 -21.95 -8.85 -20.95Q-15.8 -17.9 -19.4 -11.15L-19.75 -10.55Q-22.3 -5.5 -22.3 0.3L-22.3 0.45L-22.25 2.45L-22.25 2.7L-22.45 2.1L-22.6 1.45L-22.75 1L-22.75 0.55Q-22.75 0.2 -23.05 -0.05L-23.1 -0.05L-22.9 -0.45L-22.9 -0.5L-23.1 -0.8L-23.2 -0.95L-23.2 -1.05L-23.15 -1.3L-23.05 -1.4L-23.1 -1.65L-23.15 -1.7L-23.1 -2L-22.95 -2.2L-23.1 -2.35L-23.15 -2.55L-23.15 -2.8L-22.85 -4.25Q-21.85 -9.8 -18.2 -14.45Q-13.65 -20.25 -6.35 -22.6Q-2.15 -23.8 2.15 -23.8L4.55 -23.75Q9.35 -23.4 13.7 -21.45Q17.2 -19.95 19.75 -17.6Q22.2 -15.5 24.05 -12.6L24.15 -12.5L24.05 -12.35Q23.9 -12.15 23.65 -12.25L23.6 -12.3L23.55 -12.15M23.35 -15.3L23.35 -15.25L23.55 -15.1L23.75 -15.05L23.75 -15.2L23.45 -15.35L23.4 -15.35L23.35 -15.3M28.3 6L28.25 6.05L28 6.55L27.95 6.25L27.95 5.95L27.95 5.9Q27.95 5.7 28.1 5.6L28.3 6M-27.3 -7.5L-27 -7.6L-26.75 -7.5L-26.45 -7.45L-26.2 -7.5L-25.95 -7.65L-25.8 -7.65L-25.95 -7.2L-25.95 -7.15L-26.3 -7.1L-26.6 -7.05L-26.7 -7.05L-26.6 -7.15Q-26.7 -7.45 -27.4 -7.45L-27.3 -7.5M-13.7 19.05L-13.5 19.3L-13.4 19.3L-13.15 19.4L-13.1 19.4L-13.1 19.3L-13.25 19.25L-13.4 19.3L-13.45 19.25L-13.45 19.15L-13.7 19.05" />
</g>
<g id="PathID_22" transform="matrix(2.57187, 0, 0, 2.57187, 259.7, 144.1)" opacity="1">
</g>
<g id="PathID_23" transform="matrix(2.57187, 0, 0, 2.57187, 265.5, 144.95)" opacity="1">
<path style="fill:#422253;fill-opacity:1" d="M-0.05 -20.45Q7.75 -20.45 13.25 -14.5Q18.75 -8.45 18.75 0.05Q18.75 8.55 13.25 14.45Q7.75 20.5 -0.05 20.5Q-7.75 20.5 -13.25 14.45Q-18.75 8.55 -18.75 0.05Q-18.75 -8.45 -13.25 -14.5Q-7.75 -20.45 -0.05 -20.45" />
</g>
<g id="PathID_24" transform="matrix(2.57187, 0, 0, 2.57187, 265.5, 144.95)" opacity="1">
</g>
<g id="PathID_25" transform="matrix(0.978868, 0, 0, 0.978868, 175.45, 269.2)" opacity="1">
<path style="fill:#30173E;fill-opacity:1" d="M23.25 -9.15L31.05 -25.4L32.3 -28.15L33.45 -30.8L34.4 -33.1L35.15 -34.85Q35.3 -35.25 35.8 -35.55Q36.25 -35.85 36.6 -35.85L44.6 -35.85Q45 -35.85 45.3 -35.55Q45.6 -35.25 45.6 -34.85Q45.6 -34.5 45.45 -34.2Q45.25 -33.9 44.85 -33.9L43.6 -33.9Q42.35 -33.9 41.5 -33.05Q40.7 -32.25 40.7 -31L40.7 -4.85Q40.7 -3.65 41.5 -2.8Q42.35 -2 43.6 -2L44.85 -2Q45.25 -2 45.45 -1.7Q45.6 -1.4 45.6 -1Q45.6 -0.65 45.45 -0.35Q45.25 -0.05 44.85 -0.05L31.05 -0.05Q30.3 -0.05 30.3 -0.75Q30.3 -1.15 30.5 -1.45Q30.65 -1.75 31.05 -1.75L34.2 -1.75Q34.9 -1.75 35.4 -2.2Q35.9 -2.7 35.9 -3.45L35.35 -24.7Q35.35 -25.1 35.1 -25.35Q34.8 -25.65 34.4 -25.65Q33.85 -25.65 33.4 -24.95L28.1 -13.6L26.05 -9.3L24.25 -5.4L22.8 -2.35L22.05 -0.7L22.05 -0.45Q21.9 -0.25 21.7 -0.2L21.35 -0.2L21 -0.2L20.6 -0.45L20.55 -0.55L20.35 -0.7L19.9 -1.8L18.6 -4.6L16.9 -8.5L14.9 -13L9.45 -25.2Q9.45 -25.35 9.2 -25.35L8.7 -25.4Q8.35 -25.4 8.05 -25.25Q7.7 -25.1 7.7 -24.7L7.25 -3.45Q7.25 -2.7 7.75 -2.2Q8.25 -1.75 8.95 -1.75L12.1 -1.75Q12.55 -1.75 12.8 -1.45Q13.1 -1.15 13.1 -0.75Q13.1 -0.4 12.8 -0.2Q12.55 -0.05 12.1 -0.05L0.7 -0.05Q0.35 -0.05 0.15 -0.35Q0 -0.65 0 -1Q0 -1.4 0.15 -1.7Q0.35 -2 0.7 -2L1.95 -2Q3.2 -2 4 -2.8Q4.8 -3.65 4.8 -4.85L4.8 -31Q4.8 -32.25 4 -33.05Q3.2 -33.9 1.95 -33.9L0.7 -33.9Q0.35 -33.9 0.15 -34.2Q0 -34.5 0 -34.85Q0 -35.25 0.3 -35.55Q0.6 -35.85 0.95 -35.85L2.3 -35.85L4.2 -35.85L6.25 -35.85L7.95 -35.85Q8.55 -35.85 8.9 -35.55Q9.25 -35.25 9.45 -34.85L11.3 -30.7Q12.15 -28.7 13.1 -26.9L21.6 -9.15Q21.65 -9 21.8 -8.9Q22.1 -8.7 22.5 -8.7Q22.85 -8.7 23.1 -8.9L23.25 -9.15" />
</g>
<g id="PathID_26" transform="matrix(0.978868, 0, 0, 0.978868, 175.45, 269.2)" opacity="1">
</g>
<g id="PathID_27" transform="matrix(0.978868, 0, 0, 0.978868, 221.5, 269.2)" opacity="1">
<path style="fill:#30173E;fill-opacity:1" d="M24.9 -1.9Q25.1 -1.9 25.4 -1.7Q25.75 -1.55 25.75 -1.1Q25.75 -0.9 25.4 -0.6Q25.1 -0.3 24.9 -0.3L17.95 -0.3Q17.55 -0.3 17.35 -0.6Q17.15 -0.9 17.15 -1.1L17.15 -3.5Q17.15 -4.1 16.05 -4.1Q14.85 -3.1 13.85 -2.4Q13 -1.7 12.2 -1.2L11.25 -0.6Q10.7 -0.35 9.85 -0.2Q9.05 -0.05 8.25 -0.05Q6.9 -0.05 5.65 -0.55Q4.45 -1.05 3.5 -2Q2.6 -2.9 2.05 -4.15Q1.55 -5.35 1.55 -6.75Q1.55 -9 2.7 -10.7Q3.8 -12.4 5.85 -13.2Q6.9 -13.7 8.4 -14.25Q9.75 -14.65 11.75 -15.1Q13.75 -15.55 16.55 -15.85L16.55 -19.65Q16.15 -21.1 14.65 -22.1Q13.15 -23.15 10.95 -23.15Q9.85 -23.15 8.8 -22.8Q7.8 -22.45 7.05 -21.9Q6.25 -21.3 5.8 -20.55Q5.35 -19.75 5.35 -18.85L5.35 -18.6Q5.35 -17.25 4.2 -17.25Q3.8 -17.25 3.45 -17.6Q3.15 -17.95 3.15 -18.6Q3.15 -20 3.9 -21.25Q4.65 -22.5 5.95 -23.45Q7.25 -24.4 8.95 -25Q10.65 -25.55 12.55 -25.55Q14.45 -25.55 16.2 -25.05Q17.9 -24.5 19.2 -23.6Q20.45 -22.65 21.2 -21.4Q21.95 -20.1 21.95 -18.6L21.7 -4.35Q21.7 -3.3 22.4 -2.6Q23.1 -1.9 24.15 -1.9L24.9 -1.9M17.15 -13.2Q17.15 -13.8 16.8 -13.9L16.3 -14Q14.5 -13.75 13.15 -13.45Q11.75 -13.15 10.9 -12.85Q9.8 -12.5 9.1 -12.15Q7.65 -11.7 6.75 -10.5Q5.85 -9.25 5.85 -7.85Q5.85 -6.8 6.25 -5.95Q6.65 -5.05 7.25 -4.4Q7.9 -3.8 8.8 -3.4Q9.7 -3 10.75 -3Q11.35 -3 12.1 -3.35Q12.85 -3.7 13.55 -4.15L14.95 -5.15L16.05 -6L16.55 -6.6Q16.8 -6.85 16.95 -7.2Q17.15 -7.5 17.15 -7.85L17.15 -13.2" />
</g>
<g id="PathID_28" transform="matrix(0.978868, 0, 0, 0.978868, 221.5, 269.2)" opacity="1">
</g>
<g id="PathID_29" transform="matrix(0.978868, 0, 0, 0.978868, 247.8, 269.2)" opacity="1">
<path style="fill:#30173E;fill-opacity:1" d="M24.65 -22.8L24.65 -23.05Q24.65 -23.6 24.35 -23.95Q24.05 -24.3 23.65 -24.3L20.95 -24.3Q20.4 -24.3 20.4 -24.75Q20.4 -25.55 20.95 -25.55L29.1 -25.55Q29.9 -25.55 29.9 -24.75Q29.9 -24.3 29.1 -24.3L28.4 -24.3Q27.85 -24.3 27.25 -23.85Q26.6 -23.35 26.4 -22.8L16.7 -0.15L16.55 0L16.2 0.1L12.7 0.1L12.4 0L12.2 -0.15L4.25 -23.05Q3.85 -23.6 3.3 -23.95Q2.8 -24.3 2.25 -24.3L1.5 -24.3Q0.75 -24.3 0.75 -24.75Q0.75 -25.55 1.5 -25.55L11.45 -25.55Q12.2 -25.55 12.2 -24.75Q12.2 -24.3 11.45 -24.3L8.95 -24.3Q8.4 -24.35 8.05 -23.8Q7.7 -23.25 7.95 -22.8L15.45 -3.9Q15.45 -3.35 15.95 -3.35Q16.4 -3.35 16.4 -3.9L24.65 -22.8" />
</g>
<g id="PathID_30" transform="matrix(0.978868, 0, 0, 0.978868, 247.8, 269.2)" opacity="1">
</g>
<g id="PathID_31" transform="matrix(0.978868, 0, 0, 0.978868, 277.65, 269.2)" opacity="1">
<path style="fill:#30173E;fill-opacity:1" d="M22.5 -4.65Q23.45 -4.65 24.05 -3.95Q24.7 -3.3 24.7 -2.4Q24.7 -1.45 24.05 -0.85Q23.45 -0.2 22.5 -0.2L2.55 -0.2Q2.2 -0.2 1.9 -0.5Q1.55 -0.8 1.55 -1.15L1.6 -1.55Q1.6 -1.7 1.85 -1.95L12.35 -13.25Q14 -14.95 15.35 -16.9Q16.45 -18.5 17.4 -20.6Q18.3 -22.65 18.3 -24.8Q18.3 -27 17.55 -28.4Q16.8 -29.8 15.7 -30.6Q14.65 -31.35 13.4 -31.65Q12.2 -31.95 11.4 -31.95Q10.5 -31.95 9.5 -31.7Q8.5 -31.5 7.65 -31.05Q6.8 -30.65 6.2 -30.05Q5.6 -29.5 5.5 -28.75L5 -25.8L5 -25.3Q4.4 -24.65 3.5 -25.05Q3.15 -25.25 3 -25.45Q2.8 -25.65 2.8 -26.05L3.5 -32.2Q4.3 -33.2 5.5 -34.05Q6.55 -34.75 8.2 -35.3Q9.85 -35.9 12.15 -35.9Q14.6 -35.9 16.5 -35.2Q18.45 -34.55 19.85 -33.3Q21.25 -32.05 21.95 -30.25Q22.7 -28.45 22.7 -26.25Q22.7 -24.05 21.9 -22.1Q21.15 -20.15 19.85 -18.35Q18.55 -16.5 17 -14.85L13.85 -11.5L10.9 -8.6L8.65 -6.45L6.75 -4.65L22.5 -4.65" />
</g>
<g id="PathID_32" transform="matrix(0.978868, 0, 0, 0.978868, 277.65, 269.2)" opacity="1">
</g>
<g id="PathID_33" transform="matrix(0.978868, 0, 0, 0.978868, 303.05, 269.2)" opacity="1">
<path style="fill:#30173E;fill-opacity:1" d="M15.35 -23.75Q15.55 -23.75 15.7 -23.6Q15.85 -23.4 15.85 -23.2L15.85 -21.55Q15.85 -21.35 15.7 -21.15Q15.55 -21 15.35 -21L9.3 -21Q8.55 -21 8.55 -20.15L8.6 -16.95L8.65 -12.1L8.75 -7.2L8.8 -3.8Q8.8 -2.8 9.5 -2.1Q10.2 -1.35 11.25 -1.35L12.05 -1.35Q12.9 -1.35 12.9 -0.55Q12.9 0 12.05 0L1.4 0Q0.6 0 0.6 -0.55Q0.6 -1.35 1.4 -1.35L2.25 -1.35Q3.25 -1.35 3.95 -2.1Q4.7 -2.8 4.7 -3.8L4.7 -20.15Q4.7 -20.75 4.1 -20.75L2.25 -20.75Q1.4 -20.75 1.4 -21.55Q1.4 -21.75 1.55 -21.95Q1.7 -22.15 1.95 -22.15L2.7 -22.55L3.5 -23L4.45 -23.45Q4.65 -23.45 4.65 -23.65L4.7 -24L4.85 -26.75L5.05 -28.85L5.25 -30.25Q5.45 -31.8 6.3 -33.4Q7 -34.7 8.35 -36.25Q9.65 -37.75 12.05 -39Q12.7 -39.4 13.3 -39.5L14.55 -39.55L15.6 -39.55Q16.05 -39.5 16.7 -39.25L16.95 -39.05Q17.25 -38.75 17.25 -38.45L17.25 -35.75Q17.25 -35.3 17.1 -35.1Q17 -34.9 16.85 -34.8Q16.65 -34.65 16.4 -34.65L16.05 -34.75L15.85 -34.9Q15.6 -35.2 15.1 -35.4Q14.7 -35.65 14 -35.8Q13.35 -36 12.35 -36Q11.3 -36 10.65 -35.6Q10 -35.2 9.65 -34.75Q9.25 -34.2 9.05 -33.55Q8.85 -33.1 8.7 -31.95Q8.55 -30.8 8.55 -29.2L8.55 -24.25Q8.55 -23.75 9.3 -23.75L15.35 -23.75" />
</g>
<g id="PathID_34" transform="matrix(0.978868, 0, 0, 0.978868, 303.05, 269.2)" opacity="1">
</g>
<g id="PathID_35" transform="matrix(0.978868, 0, 0, 0.978868, 320.6, 269.2)" opacity="1">
<path style="fill:#30173E;fill-opacity:1" d="M6.6 -34.1Q7.15 -34.1 7.75 -33.85Q8.3 -33.65 8.7 -33.05Q9.1 -32.65 9.3 -32.2Q9.45 -31.8 9.45 -31.25Q9.45 -30.6 9.3 -30.2Q9.1 -29.75 8.7 -29.35Q8.3 -28.75 7.7 -28.55Q7.15 -28.3 6.6 -28.3Q6 -28.3 5.55 -28.55Q5.1 -28.75 4.7 -29.35Q4.3 -29.75 4.1 -30.2Q3.95 -30.6 3.95 -31.25Q3.95 -31.8 4.1 -32.2Q4.3 -32.65 4.7 -33.05Q5.1 -33.65 5.55 -33.85Q6 -34.1 6.6 -34.1M9.2 -25.65Q10.05 -25.65 10.05 -25.15L10.05 -24.85L9.95 -22.6L9.85 -18.85L9.75 -14.4L9.6 -9.95L9.5 -6.2L9.45 -3.9Q9.45 -2.95 10.15 -2.25Q10.85 -1.55 11.85 -1.55L12.65 -1.3Q13.45 -1.3 13.45 -0.75Q13.45 0 12.65 0L1.3 0Q0.75 0 0.75 -0.75Q0.75 -1.3 1.3 -1.3L2.35 -1.55Q3.4 -1.55 4.05 -2.25Q4.7 -2.95 4.7 -3.9L4.7 -23.8Q4.7 -24.3 4.2 -24.3L2.35 -24.3Q1.55 -24.3 1.55 -24.85Q1.55 -25.1 1.7 -25.25L2.1 -25.65L9.2 -25.65" />
</g>
<g id="PathID_36" transform="matrix(0.978868, 0, 0, 0.978868, 320.6, 269.2)" opacity="1">
</g>
<g id="PathID_37" transform="matrix(0.978868, 0, 0, 0.978868, 334.35, 269.2)" opacity="1">
<path style="fill:#30173E;fill-opacity:1" d="M13.8 -0.85L12.9 -0.45Q12.4 -0.3 11.6 -0.2Q10.85 -0.1 9.65 -0.1Q7.7 -0.1 6.7 -1Q5.65 -1.95 5.15 -3.05Q4.6 -4.4 4.5 -6.05L4.5 -22.1Q4.5 -22.95 4 -22.95L2.15 -22.95Q1.35 -22.95 1.35 -23.7Q1.35 -24.2 1.9 -24.2L2.55 -24.6L3.35 -25.1L4.25 -25.75L4.35 -25.95L4.45 -26.1L4.5 -26.3L4.5 -35.1Q4.3 -35.9 3.75 -36.4Q3.2 -36.9 2.4 -36.9L1.35 -36.9Q0.85 -36.9 0.85 -37.7Q0.85 -38.2 1.35 -38.2L8.4 -38.2Q9.15 -38.2 9.15 -37.7L9.15 -36.9L9.15 -36.65L8.9 -25.5L12.15 -25.45L15.65 -25.55Q15.85 -25.55 16 -25.25Q16.15 -25 16.15 -24.75L16.15 -23.45Q16.15 -22.95 15.65 -22.95L8.9 -22.95L8.65 -6Q8.9 -5.3 9.4 -4.75Q9.8 -4.25 10.6 -3.85Q11.35 -3.45 12.55 -3.45Q13.3 -3.45 13.95 -3.55L15.1 -3.8L16.15 -4.25L16.4 -4.25Q16.95 -4.25 16.95 -3.45L16.7 -3.2L13.8 -0.85" />
</g>
<g id="PathID_38" transform="matrix(0.978868, 0, 0, 0.978868, 334.35, 269.2)" opacity="1">
</g>
<g id="PathID_39" transform="matrix(1.80383, 0, 0, 1.80383, 232.3, 176.15)" opacity="1">
<path style="fill:#FFFFFF;fill-opacity:1" d="M32.75 -5.15Q33 -4.8 33 -4.5Q33 -3.95 32.5 -3.45L31.25 -2.7Q28.35 -1.2 25.55 -0.65Q22.7 -0.05 19.65 -0.05Q15.8 -0.05 12.6 -1.05Q9.35 -2.05 7 -3.65Q3.8 -6.45 1.9 -10Q0 -13.55 0 -18Q0 -21.95 1.4 -25.25Q2.85 -28.55 5.5 -30.95Q8.15 -33.35 11.85 -34.65Q15.55 -35.95 20.1 -35.95L22.3 -35.9Q23.35 -35.9 24.25 -35.75L26.15 -35.4Q27.35 -35.2 28.4 -34.85Q29.5 -34.45 30.25 -33.75Q31.05 -33.05 31.05 -31.85L31.05 -26.7Q31.05 -26.35 30.9 -26.05Q30.7 -25.75 30.3 -25.75Q29.95 -25.75 29.6 -26.05Q29.3 -26.35 29.3 -26.7L29.3 -29.4Q28.95 -31.85 26.55 -32.9Q24.15 -34 19.65 -34Q16.45 -34 13.85 -33.05Q11.2 -32.15 9.3 -30.3Q7.4 -28.45 6.35 -25.65Q5.3 -22.85 5.3 -19Q5.3 -15.55 6.4 -12.6Q7.45 -9.6 9.6 -7.4Q11.7 -5.2 14.8 -3.95Q17.85 -2.7 21.85 -2.7Q23.7 -2.7 25.75 -3Q27.85 -3.35 29.35 -4.2L31.25 -5.35Q31.6 -5.55 32 -5.55Q32.55 -5.55 32.75 -5.15" />
</g>
<g id="PathID_40" transform="matrix(1.80383, 0, 0, 1.80383, 232.3, 176.15)" opacity="1">
</g>
</svg>
